<?xml version="1.0" encoding="utf-8"?>
<!-- Generator: Adobe Illustrator 22.0.0, SVG Export Plug-In . SVG Version: 6.00 Build 0)  -->
<svg version="1.1" id="katman_1" xmlns="http://www.w3.org/2000/svg" xmlns:xlink="http://www.w3.org/1999/xlink" x="0px" y="0px"
	 viewBox="0 0 595.3 130.1" style="enable-background:new 0 0 595.3 130.1;" xml:space="preserve">
<style type="text/css">
	.st0{fill:#112369;}
	.st1{clip-path:url(#SVGID_2_);fill:url(#SVGID_3_);}
	.st2{clip-path:url(#SVGID_5_);fill:url(#SVGID_6_);}
	.st3{fill-rule:evenodd;clip-rule:evenodd;fill:#F47A21;}
	.st4{fill-rule:evenodd;clip-rule:evenodd;fill:#ED1651;}
	.st5{fill-rule:evenodd;clip-rule:evenodd;fill:#00BABE;}
	.st6{fill-rule:evenodd;clip-rule:evenodd;fill:#FFCB05;}
</style>
<path class="st0" d="M384.1,75.6c0,2.4,0.6,3,3,3h2.4v12c0,7.7,3.9,11.6,11.7,11.6c1.8,0,3.2-0.1,4.3-0.4c2.6-0.5,3.3-1.6,3.3-4.3
	v-0.7c0-2.7-0.6-3-3.3-2.5c-1.2,0.2-2.6,0.4-4.3,0.4c-2.6,0-3.8-1.3-3.8-4.1v-12h6.9c2.7,0,3.4-0.7,3.4-3.4v-0.7
	c0-2.7-0.7-3.4-3.4-3.4h-6.9v-4.7c0-2.6-0.5-3.2-3.2-3.2H394c-2.6,0-3.3,0.6-3.6,3.1l-0.7,4.8l-2.5,0.5c-2.4,0.5-3,1.2-3,3.6V75.6z
	 M374.2,92c-0.3,3.3-2.3,3.6-5.4,3.6c-3,0.1-4.9-0.2-5.2-3.2c0-2.2,1.5-3.3,4.3-3.3h6.3V92z M382.1,80.9c0-7.5-5.2-10.4-14.7-10.4
	c-1.8,0-3.4,0.1-4.9,0.3c-2.6,0.4-3.3,1.1-3.3,3.7v0.2c0,2.7,0.7,3.3,3.4,2.9c1.8-0.2,3.6-0.4,5.3-0.4c4.2,0,6.3,0.8,6.3,3.7v2.3
	h-6.1c-8.2,0-12.3,3.2-12.3,9.5c0,6.4,4,9.6,13.2,9.6c9.2,0,13.2-3.2,13.2-9.8V80.9z M316.7,82.7c0-3.4,1.1-4.8,5-4.8
	c4.1,0,5,1.4,5,4.8v15.4c0,2.7,0.7,3.4,3.4,3.4h0.9c2.7,0,3.4-0.7,3.4-3.4V82.7c0-3.4,1-4.8,5.2-4.8c3.9,0,4.9,1.4,4.9,4.8v15.4
	c0,2.7,0.7,3.4,3.4,3.4h1.2c2.7,0,3.4-0.7,3.4-3.4V82.7c0-8.3-4.1-12.3-12.9-12.3c-4.1,0-7,1.3-8.9,3.9c-1.8-2.6-4.8-3.9-9-3.9
	c-8.5,0-13,4.3-13,12.3v15.4c0,2.7,0.7,3.4,3.4,3.4h1.2c2.7,0,3.4-0.7,3.4-3.4V82.7z M290.2,102.2c9.5,0,14.5-4.7,14.5-13.5v-4.9
	c0-9.1-4.6-13.5-14.5-13.5c-9.5,0-14.6,4.8-14.6,13.5v4.9C275.6,97.8,280.3,102.2,290.2,102.2z M296.7,88.8c0,4.2-1.3,6-6.5,6
	c-5.2,0-6.6-1.8-6.6-6v-4.9c0-4.2,1.5-6,6.6-6c5.2,0,6.5,1.8,6.5,6V88.8z M257.8,79.8c-1.8,2.2-2.4,3.4-2.4,5.4c0,2,0.8,4,2.4,6
	l6.1,7.7c1.7,2.1,2.8,2.7,5.5,2.7h3c2.7,0,3-0.5,1.3-2.7l-9.3-11.4c-0.7-0.9-1.1-1.5-1.1-1.9c0-0.5,0.4-1.2,1.2-2l8-9.7
	c1.7-2.1,1.5-2.6-1.2-2.6h-3c-2.7,0-3.8,0.5-5.5,2.6L257.8,79.8z M245.5,98.1c0,2.7,0.7,3.4,3.4,3.4h1.1c2.7,0,3.4-0.7,3.4-3.4V62.4
	c0-2.7-0.7-3.4-3.4-3.4h-1.1c-2.7,0-3.4,0.7-3.4,3.4V98.1z M221.2,81.9c0-3.1,2-4.6,6-4.6c4,0,6,1.5,6,4.6v0.9h-12V81.9z
	 M240.7,83.5c0-8.7-4.4-13.1-13.3-13.1c-9.4,0-14.2,4.6-14.2,13.7v4.9c0,9.3,5,13.3,15.9,13.3c3,0,5.4-0.2,7.4-0.8
	c2.7-0.7,3.2-1.3,3.2-3.9v-0.7c0-2.9-0.6-3.5-3.2-2.9c-2.7,0.5-5.1,0.9-7.4,0.9c-5.6,0-8-1.5-8-4.6v-0.9h15.4c2.9,0,3.6-0.6,3.9-3.3
	C240.7,85.2,240.7,84.4,240.7,83.5z M198.5,92.3c0,6.6,3.5,9.8,9.1,9.8c0.8,0,1.4-0.1,1.8-0.1c1.6-0.3,2.1-1,2.1-3.4v-1.2
	c0-2.4-0.4-2.8-2.1-2.8h-0.3c-1.9,0-2.7-1-2.7-4.1V62.4c0-2.7-0.7-3.4-3.4-3.4h-1.1c-2.7,0-3.4,0.7-3.4,3.4V92.3z M174.9,81.9
	c0-3.1,2-4.6,6-4.6c4,0,6,1.5,6,4.6v0.9h-12V81.9z M194.4,83.5c0-8.7-4.4-13.1-13.3-13.1c-9.4,0-14.2,4.6-14.2,13.7v4.9
	c0,9.3,5,13.3,15.9,13.3c3,0,5.4-0.2,7.4-0.8c2.7-0.7,3.2-1.3,3.2-3.9v-0.7c0-2.9-0.6-3.5-3.2-2.9c-2.7,0.5-5.1,0.9-7.4,0.9
	c-5.6,0-8-1.5-8-4.6v-0.9h15.4c2.9,0,3.6-0.6,3.9-3.3C194.3,85.2,194.4,84.4,194.4,83.5z M140.2,75.6c0,2.4,0.6,3,3,3h2.4v12
	c0,7.7,3.9,11.6,11.7,11.6c1.8,0,3.2-0.1,4.3-0.4c2.6-0.5,3.3-1.6,3.3-4.3v-0.7c0-2.7-0.6-3-3.3-2.5c-1.2,0.2-2.6,0.4-4.3,0.4
	c-2.6,0-3.8-1.3-3.8-4.1v-12h6.9c2.7,0,3.4-0.7,3.4-3.4v-0.7c0-2.7-0.7-3.4-3.4-3.4h-6.9v-4.7c0-2.6-0.5-3.2-3.2-3.2H150
	c-2.6,0-3.3,0.6-3.6,3.1l-0.7,4.8l-2.5,0.5c-2.4,0.5-3,1.2-3,3.6V75.6z"/>
<path class="st0" d="M487.7,74.2c0,1.4,0.2,1.6,1.6,1.6h3.5v15.4c0,7.2,3.4,10.8,10.2,10.8c1.9,0,3.6-0.2,5.3-0.6
	c1.5-0.4,1.9-1,1.9-2.2v-0.5c0-1.5-0.4-1.9-1.8-1.6c-1.5,0.4-3.3,0.6-5.4,0.6c-3.6,0-5.6-1.8-5.6-6.4V75.9h9.8
	c1.5,0,1.9-0.4,1.9-1.9v-0.5c0-1.5-0.4-1.9-1.9-1.9h-9.8v-6.3c0-1.3-0.4-1.6-1.6-1.6h-0.4c-1.4,0-1.8,0.4-1.8,1.6l-0.7,6.3l-3.5,0.5
	c-1.3,0.2-1.6,0.5-1.6,1.9V74.2z M464.6,82.4c0-4.9,2.7-7.4,8.2-7.4c5.5,0,8.2,2.5,8.2,7.4v2h-16.4V82.4z M485.3,83.1
	c0-8-4.4-12.2-12.5-12.2c-8.6,0-12.8,4.3-12.8,12.8v5.7c0,9,4.5,12.7,14,12.7c2.9,0,5.7-0.4,8.3-1.2c1.6-0.5,1.9-0.9,1.9-2.2v-0.5
	c0-1.5-0.5-2-1.9-1.6c-2.9,0.8-5.6,1.2-8.3,1.2c-6.7,0-9.5-2.2-9.5-7.7v-1.8H483c1.6,0,2-0.4,2.2-1.9
	C485.3,85.6,485.3,84.5,485.3,83.1z M434.2,82.3c0-4.8,2-7,8.1-7c6.1,0,8,2.2,8,7v17.3c0,1.6,0.3,1.9,1.9,1.9h0.7
	c1.6,0,1.9-0.3,1.9-1.9V82.3c0-7.4-3.7-11.4-12.6-11.4c-8.4,0-12.7,3.8-12.7,11.4v17.3c0,1.6,0.4,1.9,1.9,1.9h0.7
	c1.6,0,1.9-0.3,1.9-1.9V82.3z M418.1,98.8c0,1.8,1.5,3.2,3.2,3.2c1.8,0,3.2-1.5,3.2-3.2c0-1.9-1.5-3.2-3.2-3.2
	C419.6,95.6,418.1,96.9,418.1,98.8z"/>
<g>
	<defs>
		<path id="SVGID_1_" d="M118.9,111.1l-15.5-9.8c-3.9-2.5-7.1-9-7.1-14.5l0-23.7l10.5-6.2c2.3-1.1,5.3-1,7.9,0.7
			c0.7,0.5,1.4,1,2,1.6c1.5,2.8,2.3,6.2,2.3,9.2L118.9,111.1z"/>
	</defs>
	<clipPath id="SVGID_2_">
		<use xlink:href="#SVGID_1_"  style="overflow:visible;"/>
	</clipPath>
	<linearGradient id="SVGID_3_" gradientUnits="userSpaceOnUse" x1="107.5086" y1="89.5527" x2="107.8986" y2="56.3427">
		<stop  offset="0" style="stop-color:#FFCB05"/>
		<stop  offset="1" style="stop-color:#F47A21"/>
	</linearGradient>
	<rect x="96.2" y="55.7" class="st1" width="22.7" height="55.5"/>
</g>
<g>
	<defs>
		<path id="SVGID_4_" d="M46,65l15.5,9.8c3.9,2.5,10.4,2.6,14.3,0.3l30.9-18.4c2.3-1.1,5.3-1,7.9,0.7c0.7,0.5,1.4,1,2,1.6
			c-1.3-2.2-3-4.2-4.8-5.3L96.2,44c-3.9-2.5-10.4-2.6-14.3-0.3L46,65z"/>
	</defs>
	<clipPath id="SVGID_5_">
		<use xlink:href="#SVGID_4_"  style="overflow:visible;"/>
	</clipPath>
	<linearGradient id="SVGID_6_" gradientUnits="userSpaceOnUse" x1="71.4754" y1="65.596" x2="94.7054" y2="51.0061">
		<stop  offset="0" style="stop-color:#56C5D0"/>
		<stop  offset="1" style="stop-color:#007DC5"/>
	</linearGradient>
	<rect x="46" y="41.3" class="st2" width="70.6" height="36.2"/>
</g>
<path class="st3" d="M95.6,38.8l10.5,6.6c2.6,1.7,7,1.7,9.6,0.2l16.4-9.9l-10.5-6.6c-2.6-1.7-7-1.7-9.6-0.2L95.6,38.8z"/>
<path class="st4" d="M135.3,39.4l5.9,3.7c1.5,0.9,3.9,1,5.4,0.1l9.3-5.6l-5.9-3.7c-1.5-0.9-3.9-1-5.4-0.1L135.3,39.4z"/>
<path class="st5" d="M128.3,28.3l5.4,3.4c1.4,0.9,3.6,0.9,5,0.1l8.5-5.1l-5.4-3.4c-1.4-0.9-3.6-0.9-5-0.1L128.3,28.3z"/>
<path class="st6" d="M149.1,24.2l3.6,2.3c0.9,0.6,2.4,0.6,3.3,0.1l5.7-3.4l-3.6-2.3c-0.9-0.6-2.4-0.6-3.3-0.1L149.1,24.2z"/>
</svg>
